HIERARCHY
ROOT Hips
{
	OFFSET 0.00000 0.00000 0.00000
	CHANNELS 6 Xposition Yposition Zposition Zrotation Yrotation Xrotation 
	JOINT LHipJoint
	{
		OFFSET 0 0 0
		CHANNELS 3 Zrotation Yrotation Xrotation
		JOINT LeftUpLeg
		{
			OFFSET 1.64577 -1.42384 0.94276
			CHANNELS 3 Zrotation Yrotation Xrotation
			JOINT LeftLeg
			{
				OFFSET 2.11538 -5.81197 0.00000
				CHANNELS 3 Zrotation Yrotation Xrotation
				JOINT LeftFoot
				{
					OFFSET 2.36541 -6.49893 0.00000
					CHANNELS 3 Zrotation Yrotation Xrotation
					JOINT LeftToeBase
					{
						OFFSET 0.17759 -0.48793 1.73865
						CHANNELS 3 Zrotation Yrotation Xrotation
						End Site
						{
							OFFSET 0.00000 -0.00000 0.91205
						}
					}
				}
			}
		}
	}
	JOINT RHipJoint
	{
		OFFSET 0 0 0
		CHANNELS 3 Zrotation Yrotation Xrotation
		JOINT RightUpLeg
		{
			OFFSET -1.43750 -1.42384 0.94276
			CHANNELS 3 Zrotation Yrotation Xrotation
			JOINT RightLeg
			{
				OFFSET -2.10480 -5.78291 0.00000
				CHANNELS 3 Zrotation Yrotation Xrotation
				JOINT RightFoot
				{
					OFFSET -2.34880 -6.45329 0.00000
					CHANNELS 3 Zrotation Yrotation Xrotation
					JOINT RightToeBase
					{
						OFFSET -0.22842 -0.62757 1.80469
						CHANNELS 3 Zrotation Yrotation Xrotation
						End Site
						{
							OFFSET -0.00000 -0.00000 0.95886
						}
					}
				}
			}
		}
	}
	JOINT LowerBack
	{
		OFFSET 0 0 0
		CHANNELS 3 Zrotation Yrotation Xrotation
		JOINT Spine
		{
			OFFSET 0.06217 1.93758 -0.49272
			CHANNELS 3 Zrotation Yrotation Xrotation
			JOINT Spine1
			{
				OFFSET -0.03114 2.03621 -0.05830
				CHANNELS 3 Zrotation Yrotation Xrotation
				JOINT Neck
				{
					OFFSET 0 0 0
					CHANNELS 3 Zrotation Yrotation Xrotation
					JOINT Neck1
					{
						OFFSET 0.04421 1.41010 0.26562
						CHANNELS 3 Zrotation Yrotation Xrotation
						JOINT Head
						{
							OFFSET -0.13407 1.43847 0.06181
							CHANNELS 3 Zrotation Yrotation Xrotation
							End Site
							{
								OFFSET -0.04980 1.45844 -0.00689
							}
						}
					}
				}
				JOINT LeftShoulder
				{
					OFFSET 0 0 0
					CHANNELS 3 Zrotation Yrotation Xrotation
					JOINT LeftArm
					{
						OFFSET 2.18382 1.47753 -0.35694
						CHANNELS 3 Zrotation Yrotation Xrotation
						JOINT LeftForeArm
						{
							OFFSET 5.05460 -0.00000 0.00000
							CHANNELS 3 Zrotation Yrotation Xrotation
							JOINT LeftHand
							{
								OFFSET 3.39013 -0.00000 0.00000
								CHANNELS 3 Zrotation Yrotation Xrotation
								JOINT LeftFingerBase
								{
									OFFSET 0 0 0
									CHANNELS 3 Zrotation Yrotation Xrotation
									JOINT LeftHandIndex1
									{
										OFFSET 0.57242 -0.00000 -0.00000
										CHANNELS 3 Zrotation Yrotation Xrotation
										End Site
										{
											OFFSET 0.46150 -0.00000 -0.00000
										}
									}
								}
								JOINT LThumb
								{
									OFFSET 0 0 0
									CHANNELS 3 Zrotation Yrotation Xrotation
									End Site
									{
										OFFSET 0.46855 -0.00000 0.46855
									}
								}
							}
						}
					}
				}
				JOINT RightShoulder
				{
					OFFSET 0 0 0
					CHANNELS 3 Zrotation Yrotation Xrotation
					JOINT RightArm
					{
						OFFSET -2.06033 1.72839 -0.47437
						CHANNELS 3 Zrotation Yrotation Xrotation
						JOINT RightForeArm
						{
							OFFSET -5.07010 -0.00000 0.00000
							CHANNELS 3 Zrotation Yrotation Xrotation
							JOINT RightHand
							{
								OFFSET -3.14957 -0.00000 -0.00000
								CHANNELS 3 Zrotation Yrotation Xrotation
								JOINT RightFingerBase
								{
									OFFSET 0 0 0
									CHANNELS 3 Zrotation Yrotation Xrotation
									JOINT RightHandIndex1
									{
										OFFSET -0.71819 -0.00000 -0.00000
										CHANNELS 3 Zrotation Yrotation Xrotation
										End Site
										{
											OFFSET -0.57902 -0.00000 -0.00000
										}
									}
								}
								JOINT RThumb
								{
									OFFSET 0 0 0
									CHANNELS 3 Zrotation Yrotation Xrotation
									End Site
									{
										OFFSET -0.58786 -0.00000 0.58786
									}
								}
							}
						}
					}
				}
			}
		}
	}
}
MOTION
Frames: 5
Frame Time: 0.0166666
12.2192 15.5869 -0.0125 -107.1020 82.9579 -99.8126 0.0000 0.0000 0.0000 -9.9067 -23.4523 -33.7100 2.6489 10.1037 29.3133 1.5447 -2.7278 -22.7766 2.3948 -9.6441 -27.8317 0.0000 0.0000 0.0000 33.3483 -7.8797 13.4219 -7.2078 -15.5044 49.6560 1.3049 -21.8672 -18.5117 -0.8249 5.7949 -16.1905 6.4368 2.7564 6.9105 -1.1992 4.1323 3.0002 -5.1233 2.1733 -0.2098 5.0018 1.0732 -11.6120 -3.3526 1.0887 -5.7993 -1.8733 0.5460 0.1801 -0.0000 0.0000 0.0000 -98.7579 53.0755 10.8085 128.8132 -53.4631 -92.8752 -0.0000 0.0000 -13.9433 25.8385 -9.9707 -4.7928 -7.1250 0.0000 -0.0000 -0.8266 18.9281 0.5138 -0.0000 0.0000 0.0000 76.8775 -13.3424 56.6958 -141.1385 47.3807 -102.4032 0.0000 -0.0000 -30.1161 -30.6240 22.3975 -12.7107 7.1250 -0.0000 -0.0000 -1.0496 -4.3930 -0.9663
14.0006 15.1861 0.0619 -97.4521 84.6422 -91.4613 0.0000 0.0000 0.0000 -13.5908 -21.0604 -30.9566 3.7404 11.8067 35.0514 0.6321 -1.3349 -14.6219 2.5200 -9.8741 -28.5701 0.0000 0.0000 0.0000 29.4730 -6.5121 6.5747 -12.4639 -18.5800 67.4519 0.4894 -17.6077 -19.9488 -1.7972 8.4301 -24.0283 3.8970 2.8075 8.1767 -1.8485 4.0817 2.8597 -4.4592 2.1017 -1.2022 5.2797 1.3596 -10.9271 -2.8010 1.4480 -5.4480 -1.7296 0.7188 0.1893 0.0000 -0.0000 0.0000 -97.3008 47.6107 11.9931 128.5800 -53.5524 -92.6876 -0.0000 0.0000 -15.7851 24.8564 -9.1838 -4.2286 -7.1250 0.0000 -0.0000 -1.4875 19.8785 0.8934 0.0000 -0.0000 0.0000 78.0500 -16.2935 58.3412 -137.7525 49.3465 -99.8719 0.0000 -0.0000 -28.0381 -29.5045 22.9732 -12.4545 7.1250 -0.0000 -0.0000 -0.2731 -4.0097 -0.2533
15.6927 14.8441 0.1337 -149.4710 89.5163 -144.0880 0.0000 0.0000 0.0000 -21.4630 -19.8070 -27.5783 5.3145 13.7294 42.1641 0.8175 -3.9022 -16.2132 0.0000 0.0401 0.1101 0.0000 0.0000 0.0000 21.4210 -4.4823 -3.5080 -17.8922 -19.8931 83.8267 0.0589 -13.7281 -18.8083 -0.9717 6.2757 -17.5864 -1.8830 2.3930 9.6103 -3.4427 3.0169 2.5743 -2.8662 1.5647 -2.6138 5.3951 1.5908 -9.5038 -1.9889 1.8425 -6.5275 -1.4818 0.9184 -0.3825 0.0000 -0.0000 0.0000 -93.8894 40.0143 16.6328 127.8298 -53.8342 -92.0831 -0.0000 0.0000 -16.0421 23.8111 -5.6398 -2.4832 -7.1250 0.0000 -0.0000 -2.1469 23.8198 1.0977 0.0000 -0.0000 0.0000 80.0199 -20.1526 57.3461 -127.7234 53.8734 -91.9972 0.0000 -0.0000 -22.3826 -30.0392 23.1029 -12.7840 7.1250 -0.0000 -0.0000 -0.5823 -3.7475 -0.5431
17.3665 14.7105 0.1815 -68.1525 92.2259 -63.3282 0.0000 0.0000 0.0000 -26.3928 -18.1652 -20.6046 6.0167 14.4445 45.0489 1.6204 -6.0019 -22.8721 0.0149 0.7869 2.1626 0.0000 0.0000 0.0000 17.3249 -0.9398 -14.7931 -21.4664 -19.9484 94.2909 -0.0474 -12.0356 -17.7430 -1.0476 6.5088 -18.2681 -4.1887 2.2754 10.8415 -4.0842 2.5765 2.6269 -2.2534 1.3766 -3.3183 4.6923 1.3847 -8.7373 -1.2740 1.7269 -7.7031 -1.1466 0.8777 -0.8948 -0.0000 -0.0000 0.0000 -87.2555 28.6972 27.7788 125.9665 -54.4982 -90.5724 -0.0000 0.0000 -15.5032 26.7257 -7.1874 -3.6047 -7.1250 0.0000 -0.0000 -0.0485 21.9433 0.0268 -0.0000 -0.0000 0.0000 82.6647 -25.5491 52.5938 -112.7793 57.9456 -79.5913 0.0000 -0.0000 -13.1781 -34.8678 20.8602 -13.9345 7.1250 -0.0000 -0.0000 -3.9223 -5.1172 -3.5654
19.0320 14.6811 0.2183 -25.9376 91.7434 -20.8972 0.0000 0.0000 0.0000 -27.1866 -15.9720 -11.5345 5.4318 13.8541 42.6562 2.0896 -5.8977 -26.1193 0.0018 -0.2752 -0.7563 0.0000 0.0000 0.0000 18.7906 4.5900 -25.7344 -22.4566 -19.8547 97.1992 -0.2149 -12.4031 -20.1773 -0.9780 6.2954 -17.6439 -2.8770 1.8727 10.0953 -3.2802 2.2081 2.4997 -2.0678 1.1674 -3.0290 5.3887 1.5203 -8.8160 -3.2118 1.7303 -6.5823 -1.8864 0.8535 -0.5014 -0.0000 0.0000 0.0000 -84.3223 18.2344 36.6620 129.0666 -53.3651 -93.0786 -0.0000 0.0000 -13.1423 24.0549 -8.2471 -3.6636 -7.1250 0.0000 -0.0000 -2.0287 20.9631 1.1693 -0.0000 0.0000 0.0000 82.7183 -30.9164 50.1698 -102.6843 59.3833 -70.9621 0.0000 -0.0000 -17.5434 -34.2982 20.7501 -13.5859 7.1250 -0.0000 -0.0000 -3.5880 -5.3840 -3.2420
